<svg xmlns="http://www.w3.org/2000/svg" xmlns:xlink="http://www.w3.org/1999/xlink" viewBox="0 0 106 106">
  <defs>
    <style>
      .cls-1 {
        fill: none;
      }

      .cls-2, .cls-3 {
        stroke: none;
      }

      .cls-3 {
        fill: #fff;
      }

      .cls-4 {
        filter: url(#Ícone);
      }
    </style>
    <filter id="Ícone" x="0" y="0" width="106" height="106" filterUnits="userSpaceOnUse">
      <feOffset dy="1" input="SourceAlpha"/>
      <feGaussianBlur stdDeviation="1" result="blur"/>
      <feFlood flood-opacity="0.302"/>
      <feComposite operator="in" in2="blur"/>
      <feComposite in="SourceGraphic"/>
    </filter>
  </defs>
  <g class="cls-4" transform="matrix(1, 0, 0, 1, 0, 0)">
    <g id="Ícone-2" data-name="Ícone" class="cls-1" transform="translate(3 2)">
      <path class="cls-2" d="M50,0A50,50,0,1,1,0,50,50,50,0,0,1,50,0Z"/>
      <path class="cls-3" d="M 50 96 C 56.21173477172852 96 62.23551559448242 94.78431701660156 67.904052734375 92.38673400878906 C 73.38121795654297 90.07008361816406 78.30106353759766 86.75276947021484 82.52691650390625 82.52691650390625 C 86.75276947021484 78.30106353759766 90.07008361816406 73.38121795654297 92.38673400878906 67.904052734375 C 94.78431701660156 62.23551559448242 96 56.21173477172852 96 50 C 96 43.78828430175781 94.78431701660156 37.76448440551758 92.38673400878906 32.09595108032227 C 90.07008361816406 26.61878395080566 86.75276947021484 21.69893264770508 82.52691650390625 17.47308349609375 C 78.30106353759766 13.24723339080811 73.38121795654297 9.929916381835938 67.904052734375 7.613266468048096 C 62.23551559448242 5.215683460235596 56.21173477172852 4 50 4 C 43.78828430175781 4 37.76448440551758 5.215683460235596 32.09595108032227 7.613266468048096 C 26.61878395080566 9.929916381835938 21.69893264770508 13.24723339080811 17.47308349609375 17.47308349609375 C 13.24723339080811 21.69893264770508 9.929916381835938 26.61878395080566 7.613266468048096 32.09595108032227 C 5.215683460235596 37.76448440551758 4 43.78828430175781 4 50 C 4 56.21173477172852 5.215683460235596 62.23551559448242 7.613266468048096 67.904052734375 C 9.929916381835938 73.38121795654297 13.24723339080811 78.30106353759766 17.47308349609375 82.52691650390625 C 21.69893264770508 86.75276947021484 26.61878395080566 90.07008361816406 32.09595108032227 92.38673400878906 C 37.76448440551758 94.78431701660156 43.78828430175781 96 50 96 M 50 100 C 22.38576698303223 100 0 77.61425018310547 0 50 C 0 22.38576698303223 22.38576698303223 0 50 0 C 77.61425018310547 0 100 22.38576698303223 100 50 C 100 77.61425018310547 77.61425018310547 100 50 100 Z"/>
    </g>
  </g>
</svg>
