<svg id="Layer_1" data-name="Layer 1" xmlns="http://www.w3.org/2000/svg" viewBox="0 0 850.39 566.93"><defs><style>.cls-1{fill:#64737e;}.cls-2{fill:#333d47;}</style></defs><title>Lettor-Logo</title><path class="cls-1" d="M122.29,447.11V324.21H111.37V309.4H148v14.81H137.1v122.9h92.36v14.81H111.37V447.11Zm46.46-34.43V324.21H157.83V309.4h71.63v14.81h-45.9v19.62h40v14.81h-40v54h45.9v14.81H157.83V412.69Z"/><path class="cls-1" d="M299.61,447.11h10.74v14.81H273.88V447.11H284.8V324.21H238.53V309.4h79.59v14.81H299.61Zm51.27-122.9H332.37V309.4H412v14.81H365.69v122.9h10.92v14.81H340V447.11h10.92Z"/><path class="cls-1" d="M490.07,461.92a77.07,77.07,0,0,1-53.86-22.4,80.91,80.91,0,0,1-9.35-11.2,64.21,64.21,0,0,1-6.94-13,79.69,79.69,0,0,1-4.53-14.44,72.72,72.72,0,0,1-1.57-15.18,74.08,74.08,0,0,1,1.57-15.27,79.19,79.19,0,0,1,4.53-14.53A66.37,66.37,0,0,1,426.86,343a81.16,81.16,0,0,1,9.35-11.2,77.7,77.7,0,0,1,11.38-9.44,78.71,78.71,0,0,1,12.86-7,64.28,64.28,0,0,1,14.44-4.53,82.2,82.2,0,0,1,15.18-1.39,83.69,83.69,0,0,1,15.27,1.39,64.07,64.07,0,0,1,14.53,4.53,78.84,78.84,0,0,1,12.86,7,78,78,0,0,1,11.38,9.44,69.36,69.36,0,0,1,16.29,24.06,77.87,77.87,0,0,1,5.92,29.8,75.6,75.6,0,0,1-5.92,29.62,71.21,71.21,0,0,1-16.29,24.25,73.64,73.64,0,0,1-24.25,16.29A74.89,74.89,0,0,1,490.07,461.92Zm0-137.71a60.08,60.08,0,0,0-24,4.81,61.33,61.33,0,0,0-32.67,32.67,62.1,62.1,0,0,0,0,47.94A61.34,61.34,0,0,0,466.1,442.3a62.09,62.09,0,0,0,47.94,0,61.34,61.34,0,0,0,32.67-32.67,62.09,62.09,0,0,0,0-47.94A61.34,61.34,0,0,0,514,329,60.06,60.06,0,0,0,490.07,324.21Z"/><path class="cls-1" d="M613.9,461.92H577.44V447.11h10.92V324.21H577.44V309.4h60.34a57.17,57.17,0,0,1,23,4.81,58.88,58.88,0,0,1,18.88,12.59,58.12,58.12,0,0,1,12.59,18.69,59.24,59.24,0,0,1,0,45.9,58.07,58.07,0,0,1-12.59,18.69,58.72,58.72,0,0,1-18.88,12.77,65.87,65.87,0,0,1-14.44,3.89L665,457.48a41.69,41.69,0,0,0,11.75,12.59,44,44,0,0,0,31.93,7.68,41.88,41.88,0,0,0,16.29-6l6.11-3.89,8,12.59-6.48,4.07a60,60,0,0,1-10.46,4.9,63.66,63.66,0,0,1-11.2,2.87q-2.22.37-4.44.56T702,493a59.45,59.45,0,0,1-33.87-10.92,54.07,54.07,0,0,1-15.73-16.84l-23-37.76H603.16v19.62H613.9ZM603.16,324.21v88.47h34.61a42.29,42.29,0,0,0,17.12-3.52,45,45,0,0,0,23.6-23.6A42.34,42.34,0,0,0,682,368.45a43,43,0,0,0-3.52-17.21A44,44,0,0,0,669,337.17a46.22,46.22,0,0,0-14.07-9.44,42.34,42.34,0,0,0-17.12-3.52Z"/><polygon class="cls-1" points="388.04 254.59 312 178.55 305.24 185.31 296.08 176.14 318.75 153.47 327.91 162.63 321.16 169.39 397.2 245.43 454.34 188.28 463.5 197.44 406.36 254.59 397.2 263.75 390.44 270.51 381.28 261.35 388.04 254.59"/><polygon class="cls-1" points="400.71 89.83 476.75 165.87 483.51 159.11 492.67 168.28 485.92 175.03 476.75 184.19 470 190.95 460.84 181.79 467.59 175.03 391.55 98.99 334.41 156.14 325.25 146.97 398.31 73.91 407.47 83.07 400.71 89.83"/><path class="cls-2" d="M342.92,223.28a20.7,20.7,0,0,1,4.67,7,21.09,21.09,0,0,1,0,15.93,21.43,21.43,0,0,1-11.7,11.7,21.13,21.13,0,0,1-8,1.56,21.43,21.43,0,0,1-8-1.56,21.43,21.43,0,0,1-11.7-11.7,21.21,21.21,0,0,1,0-15.95A21.43,21.43,0,0,1,320,218.6a21.15,21.15,0,0,1,15.94,0A20.66,20.66,0,0,1,342.92,223.28Z"/><path class="cls-2" d="M473.75,89.13a20.7,20.7,0,0,1,4.67,7,21.17,21.17,0,0,1,0,15.93,21.43,21.43,0,0,1-11.7,11.7,21.13,21.13,0,0,1-8,1.56,21.43,21.43,0,0,1-8-1.56,21.43,21.43,0,0,1-11.7-11.7,21.21,21.21,0,0,1,0-15.95,21.43,21.43,0,0,1,11.7-11.7,21.24,21.24,0,0,1,15.94,0A20.67,20.67,0,0,1,473.75,89.13Z"/></svg>