<svg id="Layer_1" data-name="Layer 1" xmlns="http://www.w3.org/2000/svg" viewBox="0 0 566.93 566.93"><defs><style>.cls-1{fill:#64737e;}.cls-2{fill:#333d47;}</style></defs><title>Lettor-Simbolo</title><polygon class="cls-1" points="269.16 469.33 97.6 297.77 82.36 313.01 61.69 292.34 112.84 241.18 133.51 261.85 118.27 277.1 289.83 448.66 418.76 319.73 439.43 340.4 310.5 469.33 289.83 490 274.59 505.24 253.92 484.57 269.16 469.33"/><polygon class="cls-1" points="297.77 97.6 469.33 269.16 484.57 253.92 505.24 274.59 490 289.83 469.33 310.5 454.08 325.75 433.42 305.08 448.66 289.83 277.1 118.27 148.17 247.2 127.5 226.53 292.34 61.69 313.01 82.36 297.77 97.6"/><path class="cls-2" d="M167.37,398.69a46.7,46.7,0,0,1,10.55,15.84,47.57,47.57,0,0,1,0,35.95,48.35,48.35,0,0,1-26.39,26.39,47.68,47.68,0,0,1-18,3.53,48.36,48.36,0,0,1-18-3.51,48.35,48.35,0,0,1-26.39-26.39,47.85,47.85,0,0,1,0-36,48.35,48.35,0,0,1,26.39-26.39,47.71,47.71,0,0,1,36,0A46.62,46.62,0,0,1,167.37,398.69Z"/><path class="cls-2" d="M462.55,96a46.71,46.71,0,0,1,10.55,15.84,47.77,47.77,0,0,1,0,35.95,48.35,48.35,0,0,1-26.39,26.39,47.68,47.68,0,0,1-18,3.53,48.35,48.35,0,0,1-18-3.51,48.36,48.36,0,0,1-26.39-26.39,47.85,47.85,0,0,1,0-36,48.35,48.35,0,0,1,26.39-26.39,47.91,47.91,0,0,1,36,0A46.63,46.63,0,0,1,462.55,96Z"/></svg>